# xmcd
# 
# Track frame offsets:
#     150
#     12605
#     23603
#     33711
#     45380
#     55524
#     65872
#     76726
#     87996
#     100665
#     112759
#     125262
#     135140
#     146029
#     154501
#     166513
#     174596
#     184548
#     196086
#     203788
# 
# Disc length: 2863
# 
# Revision: 1
# Processed by: cddbd v1.5.2PL0 Copyright (c) Steve Scherf et al.
# Submitted via: fre:ac v1.0.17
# 
DISCID=ef0b2d14
DTITLE=Johnny Cash - The Absolutely Essential 3CD Collection
DYEAR=2015
DGENRE=Country
TTITLE0=I Walk The Line
TTITLE1=Cry, Cry, Cry
TTITLE2=Hey Porter
TTITLE3=So Doggone Lonesome
TTITLE4=Get Rhythm
TTITLE5=There You Go
TTITLE6=Train Of Love
TTITLE7=Don't Make Me Go
TTITLE8=Next In Line
TTITLE9=Home Of The Blues
TTITLE10=Give My Love To Rose
TTITLE11=Rock Island Line
TTITLE12=I Heard That Lonesome Whistle Blow
TTITLE13=Country Boy
TTITLE14=Doin' My Time
TTITLE15=The Wreck Of The Old '97
TTITLE16=Ballad Of A Teenage Queen
TTITLE17=Big River
TTITLE18=Come In Stranger
TTITLE19=The Ways Of A Woman In Love
EXTD=
EXTT0=
EXTT1=
EXTT2=
EXTT3=
EXTT4=
EXTT5=
EXTT6=
EXTT7=
EXTT8=
EXTT9=
EXTT10=
EXTT11=
EXTT12=
EXTT13=
EXTT14=
EXTT15=
EXTT16=
EXTT17=
EXTT18=
EXTT19=
PLAYORDER=
